<svg width="65" height="65" viewBox="0 0 65 65" fill="none" xmlns="http://www.w3.org/2000/svg">
<circle cx="32.5" cy="32.5" r="32" stroke="black"/>
<path d="M45.38 47.196C45.236 47.196 45.092 47.184 44.948 47.16C44.804 47.16 44.648 47.148 44.48 47.124C44.456 47.124 44.396 47.088 44.3 47.016C44.204 46.968 44.132 46.944 44.084 46.944C43.94 46.944 43.784 46.932 43.616 46.908C43.472 46.908 43.316 46.896 43.148 46.872C43.124 46.848 43.1 46.812 43.076 46.764C43.076 46.74 43.052 46.728 43.004 46.728C42.98 46.728 42.968 46.728 42.968 46.728C42.992 46.752 42.992 46.764 42.968 46.764C42.944 46.764 42.884 46.74 42.788 46.692C42.716 46.644 42.656 46.608 42.608 46.584V46.512C42.512 46.488 42.452 46.452 42.428 46.404C42.404 46.38 42.38 46.368 42.356 46.368H42.284C42.236 46.368 42.212 46.356 42.212 46.332C42.116 46.284 41.996 46.212 41.852 46.116C41.708 46.044 41.612 45.972 41.564 45.9C41.468 45.876 41.408 45.84 41.384 45.792C41.36 45.768 41.324 45.732 41.276 45.684C41.252 45.636 41.228 45.612 41.204 45.612C41.204 45.636 41.192 45.636 41.168 45.612C41.072 45.468 40.952 45.348 40.808 45.252C40.808 45.228 40.796 45.204 40.772 45.18C40.772 45.18 40.772 45.168 40.772 45.144C40.724 45.144 40.688 45.132 40.664 45.108C40.64 45.06 40.628 45.024 40.628 45C40.628 44.952 40.604 44.928 40.556 44.928C40.532 44.808 40.496 44.724 40.448 44.676C40.4 44.628 40.352 44.556 40.304 44.46C40.28 44.412 40.268 44.364 40.268 44.316C40.268 44.244 40.244 44.208 40.196 44.208V44.172C40.22 44.124 40.184 43.992 40.088 43.776C40.016 43.536 39.98 43.332 39.98 43.164L39.908 43.128C39.836 43.008 39.788 42.864 39.764 42.696C39.764 42.528 39.776 42.36 39.8 42.192C39.848 42 39.848 41.916 39.8 41.94C39.752 41.964 39.752 41.844 39.8 41.58L40.052 41.076C40.052 41.028 40.04 40.98 40.016 40.932C39.992 40.884 39.98 40.848 39.98 40.824C39.98 40.8 39.992 40.776 40.016 40.752C40.04 40.728 40.052 40.704 40.052 40.68C40.076 40.632 40.088 40.56 40.088 40.464C40.088 40.368 40.1 40.308 40.124 40.284C40.148 40.236 40.184 40.2 40.232 40.176C40.28 40.128 40.316 40.092 40.34 40.068L40.52 39.636C40.568 39.588 40.604 39.552 40.628 39.528C40.676 39.48 40.712 39.432 40.736 39.384C40.784 39.312 40.82 39.252 40.844 39.204C40.868 39.132 40.904 39.06 40.952 38.988C40.976 38.94 41.012 38.892 41.06 38.844C41.132 38.796 41.18 38.76 41.204 38.736C41.324 38.664 41.42 38.628 41.492 38.628C41.588 38.628 41.648 38.724 41.672 38.916L41.636 39.096C41.54 39.216 41.444 39.324 41.348 39.42C41.252 39.492 41.144 39.576 41.024 39.672C41.024 39.696 41.012 39.732 40.988 39.78C40.988 39.804 40.988 39.84 40.988 39.888C40.94 39.888 40.916 39.912 40.916 39.96C40.916 39.984 40.904 40.02 40.88 40.068C40.88 40.092 40.844 40.14 40.772 40.212C40.748 40.26 40.724 40.32 40.7 40.392C40.7 40.44 40.688 40.488 40.664 40.536L40.556 40.608L40.52 41.472C40.544 41.496 40.568 41.496 40.592 41.472C40.616 41.52 40.628 41.592 40.628 41.688V41.724L40.592 41.76V42.048C40.568 42.072 40.556 42.096 40.556 42.12C40.556 42.144 40.568 42.18 40.592 42.228C40.616 42.252 40.628 42.288 40.628 42.336C40.604 42.36 40.592 42.396 40.592 42.444C40.592 42.492 40.616 42.54 40.664 42.588V42.696C40.712 42.768 40.772 42.84 40.844 42.912C40.916 42.96 40.976 43.008 41.024 43.056L41.312 43.164C41.744 43.476 42.068 43.692 42.284 43.812C42.5 43.932 42.86 44.064 43.364 44.208C43.556 44.256 43.748 44.316 43.94 44.388C44.132 44.436 44.324 44.46 44.516 44.46C44.54 44.46 44.552 44.472 44.552 44.496C44.552 44.496 44.564 44.496 44.588 44.496C44.684 44.496 44.768 44.508 44.84 44.532C44.936 44.556 45.032 44.568 45.128 44.568C45.152 44.568 45.176 44.568 45.2 44.568C45.224 44.544 45.248 44.532 45.272 44.532C45.32 44.532 45.356 44.544 45.38 44.568C45.404 44.568 45.428 44.568 45.452 44.568C45.644 44.568 45.836 44.568 46.028 44.568C46.22 44.568 46.4 44.556 46.568 44.532C46.76 44.532 46.952 44.508 47.144 44.46C47.336 44.412 47.516 44.388 47.684 44.388C48.02 44.364 48.344 44.304 48.656 44.208C48.992 44.088 49.316 43.98 49.628 43.884C49.652 43.86 49.856 43.776 50.24 43.632C50.648 43.464 51.068 43.284 51.5 43.092C51.596 42.804 51.644 42.456 51.644 42.048C51.644 41.376 51.5 40.776 51.212 40.248C51.212 40.248 51.152 40.212 51.032 40.14C50.912 40.044 50.84 39.996 50.816 39.996V39.924C50.816 39.804 50.756 39.744 50.636 39.744C50.516 39.72 50.408 39.648 50.312 39.528C50.264 39.456 50.204 39.396 50.132 39.348V39.312C50.06 39.264 50.048 39.228 50.096 39.204C50.168 39.156 50.216 39.12 50.24 39.096L50.168 39.024H50.132C50.084 38.976 50.024 38.94 49.952 38.916C49.88 38.892 49.82 38.844 49.772 38.772L49.592 38.628C49.568 38.58 49.52 38.556 49.448 38.556C49.376 38.556 49.316 38.544 49.268 38.52C49.172 38.448 49.064 38.364 48.944 38.268C48.824 38.172 48.704 38.1 48.584 38.052H48.548C48.452 38.004 48.356 37.944 48.26 37.872C48.188 37.8 48.092 37.74 47.972 37.692C47.948 37.644 47.912 37.644 47.864 37.692C47.84 37.716 47.816 37.716 47.792 37.692C47.696 37.644 47.612 37.572 47.54 37.476C47.468 37.356 47.372 37.296 47.252 37.296H47.216C47.144 37.248 47.084 37.176 47.036 37.08C47.012 36.96 46.976 36.876 46.928 36.828C46.712 36.708 46.496 36.624 46.28 36.576C46.064 36.528 45.848 36.468 45.632 36.396C45.488 36.324 45.308 36.288 45.092 36.288C44.9 36.264 44.744 36.24 44.624 36.216C44.48 36.168 44.408 36.096 44.408 36C44.408 35.88 44.528 35.76 44.768 35.64C44.864 35.592 44.972 35.568 45.092 35.568C45.212 35.544 45.32 35.532 45.416 35.532C45.68 35.532 46.088 35.46 46.64 35.316C47.216 35.172 47.864 34.98 48.584 34.74C49.304 34.476 50 34.2 50.672 33.912C50.816 33.864 50.924 33.816 50.996 33.768C51.092 33.72 51.164 33.732 51.212 33.804C51.164 33.804 51.14 33.84 51.14 33.912C51.26 33.912 51.332 33.876 51.356 33.804C51.404 33.708 51.452 33.612 51.5 33.516H51.536L52.22 33.156C52.316 33.132 52.4 33.144 52.472 33.192C52.568 33.216 52.652 33.204 52.724 33.156C52.7 33.108 52.664 33.072 52.616 33.048C52.592 33 52.616 32.952 52.688 32.904C52.736 32.856 52.772 32.832 52.796 32.832C52.94 32.736 53.072 32.676 53.192 32.652C53.336 32.604 53.444 32.508 53.516 32.364C53.9 32.1 54.224 31.824 54.488 31.536C54.752 31.224 54.884 30.936 54.884 30.672C54.884 30.336 54.644 30.048 54.164 29.808C53.708 29.544 52.88 29.328 51.68 29.16C51.632 29.16 51.584 29.16 51.536 29.16C51.488 29.136 51.44 29.124 51.392 29.124C51.08 29.124 50.78 29.052 50.492 28.908C50.516 29.004 50.468 29.052 50.348 29.052C50.012 29.028 49.676 29.016 49.34 29.016C49.004 28.992 48.68 28.98 48.368 28.98C47.84 28.98 47.348 28.992 46.892 29.016C46.46 29.04 46.148 29.064 45.956 29.088C45.764 29.112 45.56 29.136 45.344 29.16C45.152 29.16 44.96 29.184 44.768 29.232C44.624 29.184 44.48 29.208 44.336 29.304H44.3C44.132 29.328 43.964 29.352 43.796 29.376C43.628 29.4 43.448 29.436 43.256 29.484C43.16 29.508 43.052 29.532 42.932 29.556C42.812 29.556 42.692 29.58 42.572 29.628L41.852 29.772C41.756 29.844 41.648 29.904 41.528 29.952C41.432 29.976 41.324 29.976 41.204 29.952H41.168L40.484 30.132H40.448C40.376 30.132 40.292 30.084 40.196 29.988C40.124 29.868 40.076 29.76 40.052 29.664C40.028 29.808 39.992 29.964 39.944 30.132C39.896 30.3 39.812 30.384 39.692 30.384L38.684 30.708C38.588 30.732 38.48 30.744 38.36 30.744C38.24 30.744 38.12 30.744 38 30.744C37.88 30.744 37.784 30.756 37.712 30.78C37.64 30.804 37.592 30.864 37.568 30.96C37.568 31.032 37.532 31.092 37.46 31.14C37.364 31.236 37.244 31.308 37.1 31.356C36.956 31.38 36.824 31.416 36.704 31.464H36.668C36.62 31.464 36.548 31.44 36.452 31.392C36.38 31.344 36.32 31.332 36.272 31.356C36.248 31.38 36.224 31.44 36.2 31.536C36.176 31.632 36.14 31.692 36.092 31.716V31.752C35.948 31.8 35.792 31.86 35.624 31.932C35.456 32.004 35.3 32.076 35.156 32.148C35.012 32.22 34.844 32.304 34.652 32.4C34.484 32.472 34.34 32.52 34.22 32.544C34.172 32.544 34.148 32.496 34.148 32.4C34.172 32.304 34.16 32.28 34.112 32.328C33.968 32.4 33.824 32.532 33.68 32.724C33.536 32.916 33.404 33.048 33.284 33.12C33.164 33.216 33.032 33.264 32.888 33.264C32.768 33.264 32.648 33.312 32.528 33.408C32.456 33.48 32.384 33.6 32.312 33.768C32.264 33.912 32.204 34.02 32.132 34.092C31.94 34.284 31.748 34.512 31.556 34.776C31.532 34.824 31.496 34.872 31.448 34.92C31.4 34.968 31.376 35.028 31.376 35.1H31.34C31.196 35.388 31.124 35.664 31.124 35.928C31.124 36.456 31.316 36.84 31.7 37.08C32.108 37.32 32.564 37.5 33.068 37.62C33.164 37.644 33.248 37.68 33.32 37.728C33.416 37.776 33.512 37.788 33.608 37.764C33.704 37.716 33.788 37.692 33.86 37.692C33.98 37.692 34.076 37.74 34.148 37.836L34.688 37.944C34.976 38.016 35.12 38.088 35.12 38.16C35.12 38.208 35.048 38.256 34.904 38.304C34.784 38.328 34.664 38.34 34.544 38.34C34.112 38.34 33.584 38.256 32.96 38.088C32.336 37.896 31.772 37.62 31.268 37.26C30.764 36.876 30.476 36.408 30.404 35.856C30.404 35.832 30.368 35.772 30.296 35.676C30.248 35.58 30.212 35.496 30.188 35.424C30.116 35.208 30.08 34.992 30.08 34.776C30.08 34.368 30.164 33.984 30.332 33.624C30.524 33.264 30.776 32.928 31.088 32.616C31.208 32.496 31.316 32.412 31.412 32.364C31.532 32.316 31.664 32.244 31.808 32.148C31.952 32.052 32.024 31.968 32.024 31.896C32.024 31.824 32.096 31.74 32.24 31.644C32.432 31.524 32.696 31.38 33.032 31.212C33.392 31.044 33.668 30.912 33.86 30.816C34.004 30.816 34.136 30.756 34.256 30.636C34.736 30.42 35.24 30.228 35.768 30.06C36.296 29.868 36.824 29.688 37.352 29.52C37.496 29.448 37.64 29.412 37.784 29.412C37.928 29.412 38.036 29.448 38.108 29.52C38.108 29.472 38.096 29.436 38.072 29.412C38.072 29.364 38.096 29.328 38.144 29.304C38.744 29.112 39.344 28.956 39.944 28.836C40.544 28.692 41.12 28.572 41.672 28.476H41.708C41.78 28.476 41.888 28.452 42.032 28.404H42.068C42.116 28.404 42.152 28.404 42.176 28.404C42.224 28.38 42.272 28.368 42.32 28.368C42.464 28.44 42.608 28.416 42.752 28.296C43.4 28.176 44 28.092 44.552 28.044C45.104 27.972 45.572 27.936 45.956 27.936H46.064C46.112 27.936 46.16 27.936 46.208 27.936C46.28 27.912 46.34 27.9 46.388 27.9H46.748C46.82 27.876 46.892 27.876 46.964 27.9C47.06 27.9 47.132 27.9 47.18 27.9H47.216C47.504 27.9 47.804 27.912 48.116 27.936C48.452 27.936 48.788 27.936 49.124 27.936H49.16C49.256 27.96 49.328 27.996 49.376 28.044C49.448 28.092 49.532 28.068 49.628 27.972C50.276 27.996 50.924 28.068 51.572 28.188C51.932 28.236 52.364 28.332 52.868 28.476C53.396 28.596 53.9 28.776 54.38 29.016C54.86 29.232 55.256 29.508 55.568 29.844C55.904 30.18 56.072 30.588 56.072 31.068C56.072 31.26 56.036 31.464 55.964 31.68C55.892 31.896 55.76 32.1 55.568 32.292C55.376 32.46 55.184 32.64 54.992 32.832L54.56 33.228L54.308 33.3L54.02 33.444C53.492 33.684 52.916 33.96 52.292 34.272C51.668 34.56 51.008 34.788 50.312 34.956L49.988 35.028H49.952V35.064H49.916C49.868 35.088 49.808 35.1 49.736 35.1C49.664 35.076 49.592 35.088 49.52 35.136C48.344 35.448 47.228 35.664 46.172 35.784C45.932 35.808 45.812 35.856 45.812 35.928C45.812 35.976 45.896 36.036 46.064 36.108C46.256 36.156 46.4 36.204 46.496 36.252C46.952 36.396 47.432 36.552 47.936 36.72C48.44 36.864 48.956 37.044 49.484 37.26C49.628 37.284 49.772 37.332 49.916 37.404C50.084 37.476 50.204 37.584 50.276 37.728C50.3 37.68 50.336 37.668 50.384 37.692C50.432 37.716 50.468 37.728 50.492 37.728C50.804 37.872 51.104 38.028 51.392 38.196C51.68 38.364 51.944 38.544 52.184 38.736C52.232 38.856 52.256 38.916 52.256 38.916C52.424 38.916 52.544 38.964 52.616 39.06C52.688 39.156 52.772 39.264 52.868 39.384C53.132 39.672 53.336 39.984 53.48 40.32C53.624 40.632 53.696 40.968 53.696 41.328C53.696 41.424 53.684 41.52 53.66 41.616C53.66 41.712 53.648 41.82 53.624 41.94C54.176 41.628 54.584 41.22 54.848 40.716C54.896 40.644 54.956 40.608 55.028 40.608C55.172 40.608 55.22 40.692 55.172 40.86C55.052 41.172 54.824 41.52 54.488 41.904C54.176 42.264 53.816 42.54 53.408 42.732C53.408 42.756 53.396 42.78 53.372 42.804C53.252 43.092 53.132 43.308 53.012 43.452C52.988 43.548 52.94 43.62 52.868 43.668C52.82 43.716 52.784 43.776 52.76 43.848L52.724 43.884L52.58 43.956C52.556 43.98 52.532 44.016 52.508 44.064C52.508 44.112 52.484 44.16 52.436 44.208C52.484 44.256 52.472 44.28 52.4 44.28C51.8 45 51.032 45.6 50.096 46.08H50.06C49.892 46.176 49.832 46.2 49.88 46.152C49.928 46.128 49.928 46.092 49.88 46.044H49.844C49.652 46.14 49.532 46.212 49.484 46.26C49.412 46.26 49.328 46.284 49.232 46.332C49.16 46.38 49.124 46.404 49.124 46.404H48.944C48.92 46.404 48.86 46.428 48.764 46.476C48.692 46.548 48.632 46.596 48.584 46.62C48.464 46.62 48.38 46.656 48.332 46.728C48.284 46.728 48.224 46.728 48.152 46.728C48.08 46.728 48.008 46.74 47.936 46.764C47.912 46.788 47.792 46.8 47.576 46.8C47.384 46.824 47.264 46.848 47.216 46.872C47.192 46.896 47.108 46.932 46.964 46.98C46.82 47.028 46.724 47.052 46.676 47.052C46.652 47.052 46.628 47.04 46.604 47.016C46.604 47.016 46.592 47.016 46.568 47.016C46.544 47.016 46.52 47.028 46.496 47.052C46.472 47.1 46.436 47.124 46.388 47.124C46.34 47.124 46.292 47.112 46.244 47.088C46.196 47.064 46.148 47.052 46.1 47.052C46.076 47.052 46.028 47.064 45.956 47.088C45.908 47.136 45.86 47.16 45.812 47.16C45.764 47.16 45.716 47.148 45.668 47.124C45.644 47.124 45.596 47.136 45.524 47.16C45.476 47.184 45.428 47.196 45.38 47.196ZM36.416 47.592C36.248 47.592 36.164 47.412 36.164 47.052C36.164 46.812 36.212 46.512 36.308 46.152C36.428 45.816 36.572 45.42 36.74 44.964C36.932 44.796 37.028 44.58 37.028 44.316C37.076 44.34 37.1 44.34 37.1 44.316C37.124 44.268 37.136 44.244 37.136 44.244C37.184 44.172 37.208 44.1 37.208 44.028C37.208 43.932 37.22 43.848 37.244 43.776C37.676 42.696 38.228 41.52 38.9 40.248C38.948 40.152 38.996 40.128 39.044 40.176C39.116 40.2 39.164 40.188 39.188 40.14C39.212 40.116 39.224 40.056 39.224 39.96C39.224 39.888 39.212 39.816 39.188 39.744C39.188 39.672 39.224 39.588 39.296 39.492L39.8 38.592C40.496 37.344 41.192 36.144 41.888 34.992C42.608 33.84 43.28 32.952 43.904 32.328L44.012 32.256L44.12 32.076C44.12 32.076 44.144 32.064 44.192 32.04C44.24 32.016 44.276 32.028 44.3 32.076C44.3 32.1 44.276 32.148 44.228 32.22C44.204 32.292 44.192 32.34 44.192 32.364C44.264 32.484 44.348 32.496 44.444 32.4C44.468 32.352 44.468 32.244 44.444 32.076C44.42 31.908 44.42 31.824 44.444 31.824C44.492 31.8 44.516 31.8 44.516 31.824C44.54 31.848 44.564 31.86 44.588 31.86C44.636 31.86 44.66 31.824 44.66 31.752C44.66 31.68 44.672 31.632 44.696 31.608C44.96 31.512 45.2 31.464 45.416 31.464C45.536 31.464 45.704 31.524 45.92 31.644C46.16 31.764 46.28 31.932 46.28 32.148C46.28 32.268 46.22 32.412 46.1 32.58C46.076 32.604 46.052 32.652 46.028 32.724C46.004 32.772 45.968 32.82 45.92 32.868C45.896 32.892 45.872 32.904 45.848 32.904C45.848 32.88 45.824 32.88 45.776 32.904C45.752 32.928 45.716 32.94 45.668 32.94C45.644 32.916 45.608 32.904 45.56 32.904C45.512 32.904 45.5 32.94 45.524 33.012C45.572 33.084 45.584 33.132 45.56 33.156C45.536 33.18 45.512 33.18 45.488 33.156C45.464 33.132 45.428 33.144 45.38 33.192C45.356 33.216 45.368 33.24 45.416 33.264C45.488 33.264 45.5 33.288 45.452 33.336C45.308 33.48 45.128 33.636 44.912 33.804C44.72 33.948 44.528 34.092 44.336 34.236C44.312 34.26 44.288 34.26 44.264 34.236C44.24 34.188 44.216 34.176 44.192 34.2L43.94 34.56C43.7 34.8 43.46 35.052 43.22 35.316C42.98 35.58 42.728 35.88 42.464 36.216C42.392 36.36 42.308 36.492 42.212 36.612C42.116 36.732 41.984 36.78 41.816 36.756C41.816 36.78 41.84 36.816 41.888 36.864C41.936 36.888 41.936 36.936 41.888 37.008C41.48 37.584 41.072 38.184 40.664 38.808C40.256 39.432 39.872 40.08 39.512 40.752C39.344 41.04 39.14 41.412 38.9 41.868L38.576 42.516C38.552 42.588 38.516 42.624 38.468 42.624C38.444 42.6 38.408 42.588 38.36 42.588C38.408 42.684 38.432 42.768 38.432 42.84C38.432 43.032 38.324 43.236 38.108 43.452C37.796 44.172 37.508 44.856 37.244 45.504C36.98 46.152 36.776 46.752 36.632 47.304C36.584 47.496 36.512 47.592 36.416 47.592ZM45.524 46.584H45.596C45.644 46.608 45.704 46.584 45.776 46.512H45.92C46.016 46.464 46.076 46.44 46.1 46.44C46.148 46.44 46.184 46.464 46.208 46.512C46.232 46.584 46.292 46.584 46.388 46.512L46.532 46.476C46.58 46.428 46.628 46.404 46.676 46.404C46.724 46.404 46.772 46.392 46.82 46.368C46.868 46.344 46.892 46.308 46.892 46.26C46.916 46.236 46.952 46.236 47 46.26C47.048 46.26 47.072 46.26 47.072 46.26C47.096 46.284 47.12 46.296 47.144 46.296H47.18C47.252 46.296 47.348 46.26 47.468 46.188C47.588 46.116 47.648 46.08 47.648 46.08C47.696 46.08 47.744 46.044 47.792 45.972C47.84 45.924 47.876 45.9 47.9 45.9L48.188 45.828C48.332 45.756 48.44 45.72 48.512 45.72C48.536 45.672 48.608 45.624 48.728 45.576C48.848 45.528 48.908 45.492 48.908 45.468C48.956 45.42 49.028 45.384 49.124 45.36C49.22 45.336 49.28 45.312 49.304 45.288C49.4 45.288 49.628 45.144 49.988 44.856C50.372 44.568 50.696 44.196 50.96 43.74C50.984 43.692 50.912 43.704 50.744 43.776C50.576 43.848 50.396 43.932 50.204 44.028C50.036 44.1 49.94 44.136 49.916 44.136C49.892 44.136 49.832 44.184 49.736 44.28C49.64 44.352 49.58 44.388 49.556 44.388C49.508 44.436 49.46 44.46 49.412 44.46C49.412 44.46 49.364 44.436 49.268 44.388V44.46C49.22 44.46 49.184 44.472 49.16 44.496C49.136 44.496 49.1 44.496 49.052 44.496C49.004 44.496 48.932 44.52 48.836 44.568C48.74 44.616 48.68 44.64 48.656 44.64C48.632 44.64 48.596 44.652 48.548 44.676C48.524 44.676 48.488 44.664 48.44 44.64C48.344 44.736 48.164 44.808 47.9 44.856C47.636 44.904 47.444 44.928 47.324 44.928C47.3 44.928 47.288 44.928 47.288 44.928C47.312 44.904 47.312 44.892 47.288 44.892C47.264 44.892 47.24 44.904 47.216 44.928C47.192 44.928 47.156 44.928 47.108 44.928L47.036 45H46.748C46.676 45 46.592 45.012 46.496 45.036C46.424 45.06 46.364 45.06 46.316 45.036H46.244C46.22 45.036 46.184 45.036 46.136 45.036C46.112 45.06 46.076 45.072 46.028 45.072C46.004 45.072 45.98 45.06 45.956 45.036C45.956 45.012 45.932 44.988 45.884 44.964C45.86 44.964 45.836 44.976 45.812 45C45.788 45.048 45.752 45.072 45.704 45.072C45.68 45.072 45.656 45.06 45.632 45.036C45.632 45.036 45.62 45.036 45.596 45.036H45.452C45.452 45.06 45.428 45.072 45.38 45.072C45.356 45.072 45.344 45.06 45.344 45.036C45.344 45.036 45.332 45.036 45.308 45.036C45.26 45.036 45.2 45.048 45.128 45.072C45.08 45.096 45.032 45.108 44.984 45.108H44.912C44.912 45.06 44.888 45.024 44.84 45V45.036H44.516C44.372 45.012 44.228 44.964 44.084 44.892C43.94 44.82 43.808 44.772 43.688 44.748C43.664 44.748 43.64 44.76 43.616 44.784C43.616 44.808 43.604 44.82 43.58 44.82C43.556 44.82 43.532 44.808 43.508 44.784C43.508 44.76 43.496 44.748 43.472 44.748C43.448 44.748 43.424 44.76 43.4 44.784C43.4 44.784 43.376 44.76 43.328 44.712C43.28 44.712 43.184 44.688 43.04 44.64C43.04 44.568 43.004 44.532 42.932 44.532C42.932 44.484 42.788 44.424 42.5 44.352C42.212 44.28 42.044 44.232 41.996 44.208C41.972 44.184 41.924 44.148 41.852 44.1C41.804 44.052 41.768 44.052 41.744 44.1C41.672 44.076 41.576 44.016 41.456 43.92C41.336 43.8 41.24 43.74 41.168 43.74L41.024 43.524H40.988L40.88 43.704C40.88 43.728 40.892 43.788 40.916 43.884C40.964 43.98 40.976 44.052 40.952 44.1C41 44.124 41.024 44.172 41.024 44.244C41.024 44.316 41.048 44.352 41.096 44.352C41.096 44.496 41.144 44.64 41.24 44.784C41.24 44.808 41.3 44.856 41.42 44.928C41.564 45 41.624 45.048 41.6 45.072C41.696 45.168 41.744 45.24 41.744 45.288C41.84 45.384 41.888 45.456 41.888 45.504C41.912 45.528 41.924 45.54 41.924 45.54C41.948 45.54 41.96 45.54 41.96 45.54C41.984 45.588 42.044 45.672 42.14 45.792C42.26 45.912 42.344 45.972 42.392 45.972H42.464C42.488 45.996 42.536 46.044 42.608 46.116C42.704 46.188 42.764 46.224 42.788 46.224H42.824C43.016 46.224 43.208 46.248 43.4 46.296C43.616 46.368 43.82 46.416 44.012 46.44C44.012 46.44 44.036 46.452 44.084 46.476C44.156 46.5 44.228 46.524 44.3 46.548C44.492 46.572 44.72 46.572 44.984 46.548C45.248 46.548 45.428 46.56 45.524 46.584Z" fill="black"/>
<path d="M40.568 44.56C40.496 44.56 40.424 44.548 40.352 44.524C40.28 44.524 40.208 44.524 40.136 44.524H40.064C39.968 44.476 39.932 44.392 39.956 44.272C39.98 44.176 39.932 44.128 39.812 44.128C39.716 44.128 39.656 44.176 39.632 44.272C39.608 44.368 39.548 44.416 39.452 44.416H39.38C39.38 44.416 39.368 44.404 39.344 44.38C39.344 44.38 39.332 44.38 39.308 44.38H39.236C39.14 44.332 39.056 44.26 38.984 44.164C38.912 44.068 38.84 44.044 38.768 44.092C38.672 44.164 38.564 44.2 38.444 44.2C38.276 44.2 38.108 44.14 37.94 44.02C37.796 43.9 37.664 43.792 37.544 43.696C37.52 43.672 37.472 43.672 37.4 43.696C37.352 43.72 37.304 43.72 37.256 43.696H37.22L36.932 43.552C36.908 43.552 36.884 43.54 36.86 43.516C36.644 43.444 36.44 43.336 36.248 43.192C36.08 43.048 35.876 42.952 35.636 42.904L35.6 42.868L34.844 42.436C34.844 42.436 34.832 42.436 34.808 42.436C34.808 42.436 34.796 42.424 34.772 42.4C34.724 42.208 34.664 42.1 34.592 42.076C34.52 42.076 34.388 42.076 34.196 42.076C34.196 42.052 34.172 42.04 34.124 42.04L33.62 41.716C33.62 41.692 33.608 41.68 33.584 41.68C33.584 41.68 33.572 41.656 33.548 41.608C33.524 41.584 33.5 41.548 33.476 41.5C33.164 41.38 32.864 41.224 32.576 41.032C32.312 40.864 32.06 40.66 31.82 40.42C31.772 40.372 31.7 40.336 31.604 40.312C31.532 40.288 31.472 40.252 31.424 40.204C31.376 40.156 31.352 40.132 31.352 40.132C31.016 39.916 30.716 39.688 30.452 39.448C30.428 39.448 30.416 39.436 30.416 39.412C30.416 39.412 30.404 39.412 30.38 39.412C30.332 39.292 30.248 39.208 30.128 39.16C30.008 39.112 29.9 39.04 29.804 38.944L29.732 38.872C29.636 38.776 29.54 38.692 29.444 38.62C29.348 38.572 29.252 38.5 29.156 38.404L29.12 38.368C29.096 38.344 29.084 38.32 29.084 38.296C29.084 38.176 29.024 38.116 28.904 38.116C28.832 38.116 28.76 38.116 28.688 38.116C28.616 38.116 28.568 38.056 28.544 37.936C28.544 37.912 28.532 37.888 28.508 37.864C28.412 37.672 28.268 37.504 28.076 37.36C27.884 37.24 27.704 37.096 27.536 36.928L27.284 36.676C27.188 36.556 27.068 36.436 26.924 36.316C26.804 36.196 26.78 36.052 26.852 35.884C26.756 35.86 26.66 35.848 26.564 35.848C26.468 35.848 26.396 35.812 26.348 35.74C26.3 35.644 26.252 35.56 26.204 35.488C26.156 35.392 26.072 35.32 25.952 35.272C25.952 35.248 25.94 35.236 25.916 35.236C25.916 35.236 25.916 35.224 25.916 35.2L25.196 34.372C25.196 34.348 25.184 34.324 25.16 34.3C25.136 34.276 25.1 34.252 25.052 34.228C25.004 34.204 24.98 34.18 24.98 34.156C24.956 33.892 24.836 33.7 24.62 33.58C24.428 33.46 24.296 33.316 24.224 33.148C24.2 33.028 24.164 32.932 24.116 32.86C24.092 32.764 24.032 32.68 23.936 32.608V32.536C23.528 31.792 23.324 31.132 23.324 30.556C23.324 30.052 23.456 29.56 23.72 29.08C23.984 28.6 24.368 28.108 24.872 27.604C25.016 27.46 25.16 27.316 25.304 27.172C25.472 27.028 25.628 26.872 25.772 26.704C25.796 26.704 25.808 26.704 25.808 26.704C25.832 26.68 25.844 26.668 25.844 26.668C26.084 26.548 26.264 26.392 26.384 26.2C26.504 25.984 26.66 25.792 26.852 25.624C26.852 25.6 26.852 25.588 26.852 25.588C26.876 25.588 26.888 25.576 26.888 25.552L27.968 24.472C28.184 24.424 28.328 24.328 28.4 24.184C28.472 24.04 28.556 23.92 28.652 23.824L28.688 23.788L29.372 23.14H29.48C29.624 23.14 29.708 23.092 29.732 22.996C29.78 22.9 29.84 22.792 29.912 22.672C29.936 22.672 29.948 22.672 29.948 22.672C29.948 22.648 29.948 22.636 29.948 22.636C29.972 22.636 29.984 22.636 29.984 22.636C29.984 22.612 29.996 22.6 30.02 22.6C30.02 22.576 30.02 22.564 30.02 22.564C30.044 22.564 30.056 22.564 30.056 22.564C30.2 22.516 30.308 22.456 30.38 22.384C30.476 22.288 30.572 22.18 30.668 22.06C30.668 22.036 30.68 22.024 30.704 22.024C30.704 21.976 30.728 21.952 30.776 21.952L30.812 21.916L31.064 21.7H31.1C31.772 21.148 32.468 20.632 33.188 20.152C33.212 20.152 33.224 20.152 33.224 20.152C33.224 20.128 33.224 20.116 33.224 20.116C33.272 20.092 33.32 20.092 33.368 20.116C33.416 20.116 33.452 20.104 33.476 20.08L33.8 19.864C33.8 19.84 33.812 19.828 33.836 19.828C33.86 19.78 33.896 19.768 33.944 19.792C33.992 19.816 34.052 19.816 34.124 19.792C34.196 19.744 34.232 19.672 34.232 19.576C34.256 19.456 34.316 19.384 34.412 19.36C34.676 19.24 34.916 19.132 35.132 19.036C35.372 18.94 35.6 18.82 35.816 18.676C35.84 18.676 35.864 18.664 35.888 18.64H35.96C35.96 18.616 35.984 18.604 36.032 18.604L36.176 18.532H36.572C36.692 18.532 36.752 18.496 36.752 18.424C36.752 18.328 36.8 18.28 36.896 18.28C36.92 18.256 36.944 18.244 36.968 18.244H37.004C37.1 18.196 37.184 18.16 37.256 18.136C37.352 18.112 37.448 18.088 37.544 18.064H37.616C37.688 18.064 37.748 18.052 37.796 18.028C37.868 18.004 37.94 17.992 38.012 17.992C38.036 17.968 38.06 17.956 38.084 17.956C38.204 18.028 38.3 18.064 38.372 18.064C38.492 18.064 38.636 18.004 38.804 17.884C38.804 17.86 38.804 17.848 38.804 17.848C38.828 17.848 38.84 17.848 38.84 17.848C39.272 17.848 39.668 17.92 40.028 18.064C40.052 18.088 40.076 18.1 40.1 18.1C40.22 18.148 40.316 18.22 40.388 18.316C40.46 18.412 40.556 18.472 40.676 18.496L40.712 18.532C40.832 18.628 40.928 18.736 41 18.856C41.096 18.952 41.18 19.06 41.252 19.18C41.252 19.18 41.252 19.192 41.252 19.216C41.276 19.216 41.288 19.228 41.288 19.252C41.336 19.348 41.372 19.444 41.396 19.54C41.444 19.612 41.492 19.684 41.54 19.756C41.54 19.78 41.54 19.792 41.54 19.792C41.564 19.792 41.576 19.804 41.576 19.828C41.6 19.924 41.624 20.032 41.648 20.152C41.672 20.248 41.708 20.344 41.756 20.44C41.78 20.464 41.792 20.488 41.792 20.512C41.744 20.68 41.636 20.764 41.468 20.764C41.324 20.764 41.228 20.692 41.18 20.548C41.084 20.044 40.832 19.696 40.424 19.504C40.424 19.48 40.412 19.468 40.388 19.468C40.076 19.348 39.776 19.288 39.488 19.288C39.32 19.288 39.188 19.3 39.092 19.324L39.056 19.36H38.768C38.744 19.384 38.72 19.396 38.696 19.396H38.624C38.576 19.372 38.504 19.36 38.408 19.36C38.336 19.36 38.264 19.372 38.192 19.396C38.12 19.42 38.048 19.456 37.976 19.504C37.952 19.504 37.928 19.516 37.904 19.54C37.904 19.54 37.892 19.54 37.868 19.54C37.82 19.54 37.724 19.564 37.58 19.612H37.436C37.34 19.612 37.292 19.564 37.292 19.468C37.292 19.372 37.256 19.312 37.184 19.288C37.088 19.288 37.016 19.336 36.968 19.432C36.944 19.528 36.908 19.6 36.86 19.648C36.836 19.672 36.824 19.696 36.824 19.72C36.824 19.792 36.788 19.828 36.716 19.828C36.716 19.852 36.704 19.864 36.68 19.864C36.656 19.864 36.632 19.876 36.608 19.9C36.608 19.9 36.596 19.9 36.572 19.9C36.524 19.9 36.5 19.912 36.5 19.936L36.32 19.828C36.272 19.828 36.248 19.864 36.248 19.936C36.248 19.984 36.2 20.044 36.104 20.116C36.08 20.116 36.068 20.128 36.068 20.152L35.636 20.296C35.612 20.32 35.588 20.332 35.564 20.332C35.252 20.332 34.976 20.452 34.736 20.692L34.7 20.728C33.884 21.112 33.116 21.52 32.396 21.952H32.36C32.216 22.048 32.072 22.096 31.928 22.096C31.784 22.072 31.724 22.156 31.748 22.348L31.712 22.384L31.424 22.564C31.4 22.588 31.376 22.6 31.352 22.6C31.16 22.696 30.98 22.828 30.812 22.996C30.788 22.996 30.764 23.008 30.74 23.032C30.644 23.104 30.536 23.176 30.416 23.248C30.296 23.296 30.176 23.368 30.056 23.464C29.936 23.56 29.816 23.656 29.696 23.752C29.576 23.824 29.468 23.92 29.372 24.04V24.076C28.58 24.652 27.872 25.252 27.248 25.876C27.224 25.876 27.212 25.888 27.212 25.912C27.212 25.912 27.2 25.912 27.176 25.912C27.008 26.032 26.84 26.152 26.672 26.272C26.528 26.392 26.42 26.548 26.348 26.74L26.312 26.776C26 27.088 25.664 27.46 25.304 27.892C24.944 28.3 24.68 28.684 24.512 29.044C24.464 29.188 24.428 29.344 24.404 29.512C24.404 29.656 24.404 29.824 24.404 30.016V30.088C24.38 30.136 24.368 30.22 24.368 30.34C24.368 30.508 24.452 30.7 24.62 30.916C24.644 30.916 24.656 30.928 24.656 30.952C24.8 31.312 25.016 31.744 25.304 32.248C25.328 32.248 25.34 32.26 25.34 32.284C25.388 32.428 25.424 32.56 25.448 32.68C25.472 32.8 25.568 32.872 25.736 32.896L25.808 32.968C26 33.232 26.204 33.508 26.42 33.796C26.66 34.06 26.9 34.336 27.14 34.624C27.14 34.648 27.14 34.672 27.14 34.696C27.164 34.696 27.176 34.696 27.176 34.696C27.224 34.72 27.248 34.78 27.248 34.876C27.248 35.044 27.272 35.14 27.32 35.164C27.368 35.188 27.416 35.176 27.464 35.128C27.536 35.08 27.584 35.08 27.608 35.128C27.896 35.512 28.244 35.872 28.652 36.208C28.652 36.208 28.652 36.22 28.652 36.244C28.652 36.244 28.664 36.244 28.688 36.244C28.88 36.412 29.072 36.592 29.264 36.784C29.48 36.952 29.684 37.132 29.876 37.324L29.912 37.36C29.96 37.432 30.008 37.48 30.056 37.504C30.104 37.552 30.14 37.624 30.164 37.72C30.188 37.816 30.26 37.864 30.38 37.864C30.5 37.888 30.596 37.936 30.668 38.008H30.704C30.896 38.176 31.088 38.332 31.28 38.476C31.472 38.62 31.676 38.764 31.892 38.908C31.892 38.932 31.904 38.944 31.928 38.944C32 38.968 32.024 39.016 32 39.088C32 39.16 32.012 39.22 32.036 39.268C32.108 39.316 32.192 39.34 32.288 39.34C32.408 39.364 32.516 39.4 32.612 39.448C32.612 39.472 32.612 39.484 32.612 39.484C32.636 39.484 32.648 39.484 32.648 39.484C33.2 39.868 33.776 40.24 34.376 40.6C34.976 40.984 35.6 41.344 36.248 41.68C37.16 42.16 37.988 42.508 38.732 42.724C39.5 42.94 40.184 43.048 40.784 43.048C41.576 43.048 42.188 42.892 42.62 42.58C43.052 42.268 43.268 41.884 43.268 41.428C43.268 41.212 43.232 41.02 43.16 40.852C43.16 40.828 43.148 40.816 43.124 40.816C43.124 40.816 43.124 40.804 43.124 40.78C43.052 40.444 42.92 40.204 42.728 40.06C42.704 40.036 42.692 40.012 42.692 39.988C42.644 39.892 42.512 39.808 42.296 39.736C42.296 39.736 42.284 39.736 42.26 39.736C42.26 39.736 42.26 39.724 42.26 39.7L42.152 39.628C42.152 39.604 42.14 39.592 42.116 39.592C42.02 39.472 41.936 39.364 41.864 39.268C41.816 39.196 41.696 39.16 41.504 39.16H41.468C41.42 39.064 41.396 38.992 41.396 38.944C41.396 38.848 41.444 38.764 41.54 38.692C41.636 38.62 41.732 38.62 41.828 38.692L42.044 38.836C42.068 38.836 42.08 38.836 42.08 38.836C42.08 38.86 42.092 38.872 42.116 38.872C42.212 38.992 42.296 39.1 42.368 39.196C42.464 39.292 42.596 39.352 42.764 39.376C42.764 39.4 42.764 39.412 42.764 39.412C42.788 39.412 42.8 39.424 42.8 39.448C42.824 39.448 42.86 39.472 42.908 39.52L42.98 39.592C43.076 39.76 43.22 39.928 43.412 40.096C43.412 40.144 43.424 40.168 43.448 40.168C43.616 40.432 43.76 40.744 43.88 41.104V41.284C43.88 41.38 43.892 41.464 43.916 41.536C43.964 41.608 44 41.68 44.024 41.752V41.824C44.024 42.496 43.796 43.108 43.34 43.66C42.908 44.236 42.236 44.524 41.324 44.524H41.288C41.216 44.476 41.144 44.44 41.072 44.416C41.024 44.392 40.976 44.38 40.928 44.38C40.832 44.38 40.736 44.44 40.64 44.56H40.568ZM14 39.628C12.944 39.628 11.924 39.172 10.94 38.26C10.796 38.212 10.676 38.104 10.58 37.936C10.484 37.792 10.388 37.672 10.292 37.576C10.124 37.528 10.016 37.456 9.968 37.36C9.92 37.264 9.872 37.144 9.824 37C9.824 36.976 9.8 36.94 9.752 36.892C9.728 36.868 9.704 36.844 9.68 36.82C9.656 36.796 9.632 36.772 9.608 36.748C9.584 36.748 9.572 36.748 9.572 36.748C9.596 36.724 9.608 36.712 9.608 36.712C9.512 36.52 9.452 36.388 9.428 36.316C9.404 36.22 9.308 36.1 9.14 35.956C9.092 35.908 9.044 35.836 8.996 35.74C8.972 35.62 8.948 35.524 8.924 35.452C8.66 34.828 8.42 34.192 8.204 33.544C8.012 32.872 7.916 32.188 7.916 31.492C7.916 31.252 7.988 31.072 8.132 30.952C8.276 30.832 8.432 30.772 8.6 30.772C8.912 30.772 9.116 30.928 9.212 31.24C9.26 31.336 9.308 31.444 9.356 31.564C9.428 31.66 9.464 31.756 9.464 31.852V32.212C9.464 32.356 9.5 32.392 9.572 32.32C9.668 32.224 9.728 32.236 9.752 32.356C9.8 32.524 9.836 32.632 9.86 32.68C9.884 32.704 9.98 32.764 10.148 32.86C10.196 32.956 10.256 33.052 10.328 33.148C10.4 33.244 10.472 33.34 10.544 33.436V33.508C10.544 33.652 10.592 33.76 10.688 33.832C10.784 33.88 10.892 33.94 11.012 34.012L11.48 34.516C11.456 34.564 11.444 34.612 11.444 34.66C11.444 34.804 11.516 34.9 11.66 34.948C11.828 34.996 11.972 35.044 12.092 35.092C12.116 35.116 12.248 35.236 12.488 35.452C12.752 35.644 12.932 35.764 13.028 35.812C13.148 35.884 13.28 35.968 13.424 36.064C13.568 36.136 13.712 36.196 13.856 36.244C13.904 36.244 13.952 36.268 14 36.316C14.432 36.484 14.828 36.568 15.188 36.568C15.524 36.568 15.908 36.496 16.34 36.352C16.412 36.328 16.472 36.316 16.52 36.316C16.592 36.292 16.64 36.28 16.664 36.28C16.736 36.28 16.772 36.304 16.772 36.352C16.772 36.472 16.664 36.592 16.448 36.712C16.448 36.76 16.412 36.784 16.34 36.784C16.244 36.808 16.148 36.844 16.052 36.892C15.956 36.94 15.86 36.952 15.764 36.928C15.644 36.928 15.548 36.916 15.476 36.892C15.404 36.868 15.308 36.904 15.188 37C14.876 36.976 14.528 36.904 14.144 36.784C13.76 36.664 13.436 36.532 13.172 36.388C13.148 36.22 13.04 36.136 12.848 36.136C12.656 36.112 12.5 36.052 12.38 35.956C12.284 35.836 12.2 35.704 12.128 35.56C12.08 35.416 11.96 35.404 11.768 35.524C11.672 35.428 11.588 35.356 11.516 35.308C11.444 35.236 11.336 35.2 11.192 35.2C11.144 35.152 11.072 35.104 10.976 35.056C10.904 35.008 10.88 34.936 10.904 34.84C10.808 34.768 10.616 34.648 10.328 34.48C10.064 34.288 9.908 34.168 9.86 34.12C9.644 33.88 9.404 33.676 9.14 33.508L9.032 33.436C9.344 34.372 9.716 35.284 10.148 36.172C10.604 37.06 11.264 37.78 12.128 38.332C12.536 38.572 12.908 38.764 13.244 38.908C13.604 39.076 13.952 39.16 14.288 39.16C14.912 39.16 15.572 38.848 16.268 38.224C17.156 37.408 17.9 36.364 18.5 35.092C19.124 33.82 19.688 32.572 20.192 31.348C20.24 31.3 20.276 31.264 20.3 31.24C20.324 31.216 20.348 31.192 20.372 31.168C20.444 31 20.492 30.808 20.516 30.592C20.564 30.352 20.612 30.148 20.66 29.98C20.78 29.836 20.888 29.668 20.984 29.476C21.104 29.26 21.164 29.056 21.164 28.864L21.236 28.684C21.284 28.66 21.272 28.624 21.2 28.576C21.128 28.528 21.176 28.492 21.344 28.468C21.512 28.204 21.608 27.94 21.632 27.676C21.68 27.388 21.752 27.184 21.848 27.064C21.92 26.944 21.992 26.836 22.064 26.74C22.136 26.644 22.148 26.524 22.1 26.38C22.124 26.284 22.196 26.056 22.316 25.696C22.46 25.312 22.616 24.892 22.784 24.436C22.952 23.98 23.096 23.584 23.216 23.248C23.336 22.888 23.396 22.684 23.396 22.636L23.756 21.592C23.084 21.616 22.4 21.652 21.704 21.7C21.008 21.748 20.324 21.856 19.652 22.024C19.676 22 19.664 21.976 19.616 21.952C19.568 21.904 19.532 21.88 19.508 21.88L19.472 21.844C19.376 21.82 19.352 21.844 19.4 21.916C19.472 21.964 19.46 22.012 19.364 22.06C19.148 22.084 18.896 22.144 18.608 22.24C18.344 22.312 18.104 22.348 17.888 22.348C17.792 22.372 17.684 22.384 17.564 22.384C17.444 22.36 17.324 22.348 17.204 22.348C16.844 22.372 16.484 22.468 16.124 22.636C15.788 22.804 15.44 22.948 15.08 23.068L14.432 23.248C14.168 23.368 13.88 23.452 13.568 23.5C13.256 23.548 12.968 23.632 12.704 23.752L12.74 23.788C12.644 23.86 12.524 23.908 12.38 23.932C12.236 23.956 12.104 23.992 11.984 24.04C11.696 24.136 11.396 24.256 11.084 24.4C10.796 24.52 10.496 24.628 10.184 24.724C10.016 24.772 9.848 24.82 9.68 24.868C9.536 24.892 9.368 24.94 9.176 25.012C9.08 25.036 8.996 25.06 8.924 25.084C8.852 25.084 8.768 25.084 8.672 25.084C8.456 25.084 8.264 25.036 8.096 24.94C8 24.892 7.856 24.76 7.664 24.544C7.496 24.304 7.352 24.064 7.232 23.824C7.112 23.56 7.064 23.368 7.088 23.248C7.112 23.176 7.268 23.092 7.556 22.996C7.844 22.876 8.18 22.768 8.564 22.672C8.948 22.552 9.296 22.456 9.608 22.384C9.944 22.288 10.16 22.228 10.256 22.204C10.304 22.18 10.436 22.156 10.652 22.132C10.868 22.084 10.988 22.108 11.012 22.204C11.036 22.252 11.012 22.324 10.94 22.42C10.868 22.492 10.808 22.552 10.76 22.6C10.76 22.624 10.724 22.672 10.652 22.744C10.604 22.816 10.604 22.84 10.652 22.816L11.912 22.492C12.104 22.444 12.332 22.432 12.596 22.456C12.884 22.456 13.1 22.408 13.244 22.312C13.292 22.264 13.316 22.216 13.316 22.168C13.34 22.12 13.388 22.096 13.46 22.096C13.628 22.048 13.904 22 14.288 21.952C14.696 21.904 14.948 21.832 15.044 21.736C15.236 21.688 15.44 21.664 15.656 21.664C15.872 21.64 16.064 21.58 16.232 21.484C16.304 21.46 16.532 21.412 16.916 21.34C17.324 21.268 17.78 21.196 18.284 21.124C18.812 21.028 19.28 20.956 19.688 20.908C20.096 20.836 20.336 20.8 20.408 20.8H20.444C20.54 20.8 20.636 20.788 20.732 20.764C20.828 20.74 20.924 20.728 21.02 20.728C21.212 20.728 21.308 20.812 21.308 20.98C21.332 21.004 21.392 21.016 21.488 21.016C21.704 21.016 21.872 20.956 21.992 20.836C22.088 20.812 22.16 20.776 22.208 20.728C22.28 20.68 22.364 20.644 22.46 20.62C22.724 20.572 23 20.56 23.288 20.584C23.6 20.584 23.876 20.584 24.116 20.584C24.284 20.224 24.464 19.984 24.656 19.864C24.848 19.72 25.136 19.648 25.52 19.648C25.736 19.648 25.88 19.732 25.952 19.9C26.048 20.044 26.108 20.212 26.132 20.404C26.132 20.452 26.132 20.512 26.132 20.584C26.156 20.632 26.168 20.692 26.168 20.764C26.168 21.172 26.072 21.532 25.88 21.844C25.664 22.228 25.364 22.456 24.98 22.528C24.956 22.6 24.86 22.852 24.692 23.284C24.524 23.716 24.344 24.196 24.152 24.724C23.96 25.228 23.78 25.684 23.612 26.092C23.468 26.476 23.384 26.692 23.36 26.74C23.288 26.836 23.216 26.932 23.144 27.028C23.072 27.124 23.024 27.232 23 27.352C22.976 27.592 22.868 27.928 22.676 28.36C22.508 28.792 22.316 29.224 22.1 29.656C21.908 30.064 21.752 30.4 21.632 30.664C21.488 30.76 21.368 30.844 21.272 30.916C21.176 30.964 21.2 31.072 21.344 31.24C21.272 31.408 21.2 31.492 21.128 31.492C21.056 31.468 20.96 31.444 20.84 31.42C20.864 31.54 20.9 31.624 20.948 31.672C20.996 31.696 21.032 31.768 21.056 31.888C20.864 32.32 20.624 32.848 20.336 33.472C20.048 34.072 19.76 34.552 19.472 34.912C19.304 34.984 19.172 35.056 19.076 35.128C18.98 35.2 18.98 35.344 19.076 35.56C19.028 35.608 18.992 35.668 18.968 35.74C18.944 35.812 18.92 35.884 18.896 35.956L18.608 36.388C18.512 36.46 18.416 36.544 18.32 36.64C18.224 36.712 18.176 36.832 18.176 37C18.08 37.144 17.996 37.252 17.924 37.324C17.78 37.372 17.66 37.432 17.564 37.504C17.468 37.576 17.42 37.708 17.42 37.9C16.94 38.428 16.4 38.848 15.8 39.16C15.224 39.472 14.624 39.628 14 39.628Z" fill="black"/>
</svg>
